<?xml version="1.0" encoding="UTF-8"?>
<svg id="Layer_1" xmlns="http://www.w3.org/2000/svg" xmlns:xlink="http://www.w3.org/1999/xlink" version="1.1" viewBox="0 0 300 300">
  <!-- Generator: Adobe Illustrator 29.3.0, SVG Export Plug-In . SVG Version: 2.1.0 Build 146)  -->
  <defs>
    <style>
      .st0 {
        fill: url(#linear-gradient2);
      }

      .st1 {
        fill: url(#linear-gradient1);
      }

      .st2 {
        fill: url(#linear-gradient3);
      }

      .st3 {
        fill: url(#linear-gradient);
      }
    </style>
    <linearGradient id="linear-gradient" x1="193.2" y1="-4446.3" x2="417.9" y2="-4446.3" gradientTransform="translate(-155.5 -4255.3) scale(1 -1)" gradientUnits="userSpaceOnUse">
      <stop offset="0" stop-color="#f7b0db"/>
      <stop offset="1" stop-color="#ef4529"/>
    </linearGradient>
    <linearGradient id="linear-gradient1" x1="193.2" y1="-4418.9" x2="417.9" y2="-4418.9" gradientTransform="translate(-155.5 -4255.3) scale(1 -1)" gradientUnits="userSpaceOnUse">
      <stop offset="0" stop-color="#ef4529"/>
      <stop offset="1" stop-color="#f7b0db"/>
    </linearGradient>
    <linearGradient id="linear-gradient2" x1="193.2" y1="-4391.6" x2="417.9" y2="-4391.6" gradientTransform="translate(-155.5 -4255.3) scale(1 -1)" gradientUnits="userSpaceOnUse">
      <stop offset="0" stop-color="#f7b0db"/>
      <stop offset="1" stop-color="#ef4529"/>
    </linearGradient>
    <linearGradient id="linear-gradient3" x1="193.2" y1="-4364.3" x2="417.9" y2="-4364.3" gradientTransform="translate(-155.5 -4255.3) scale(1 -1)" gradientUnits="userSpaceOnUse">
      <stop offset="0" stop-color="#ef4529"/>
      <stop offset="1" stop-color="#f7b0db"/>
    </linearGradient>
  </defs>
  <path class="st3" d="M148.6,246.6l-109-50.1c-2.5-1.2-2.6-4.7-.1-6l109-55c.9-.5,2-.5,3,0l109,55c2.5,1.3,2.4,4.8-.1,6l-109,50.1c-.9.4-1.9.4-2.8,0h0Z"/>
  <path class="st1" d="M148.6,219.2l-109-50.1c-2.5-1.2-2.6-4.7-.1-6l109-55c.9-.5,2.1-.5,3,0l109,55c2.5,1.3,2.4,4.8-.1,6l-109,50.1c-.9.4-1.9.4-2.8,0h0Z"/>
  <path class="st0" d="M148.6,191.9l-109-50.1c-2.5-1.2-2.6-4.7-.1-6l109-55c.9-.5,2-.5,3,0l109,55c2.5,1.3,2.4,4.8-.1,6l-109,50.1c-.9.4-1.9.4-2.8,0Z"/>
  <path class="st2" d="M148.6,164.6l-109-50.1c-2.5-1.2-2.6-4.7-.1-6l109-55c.9-.5,2.1-.5,3,0l109,55c2.5,1.3,2.4,4.8-.1,6l-109,50.1c-.9.4-1.9.4-2.8,0h0Z"/>
</svg>
